# xmcd
#
# Track frame offsets: 
#        150
#        15098
#        32107
#        48240
#        63715
#        79428
#        93098
#        109389
#        120730
#        135484
#        150512
#        164465
#        178753
#        194211
#        207515
#        221092
#        234433
#        247512
#        259873
#        271314
#
# Disc length: 3814 seconds
#
# Revision: 0
# Processed by: cddbd v1.5.2PL0 Copyright (c) Steve Scherf et al.
# Submitted via: ExactAudioCopy v0.99pb4
#
DISCID=1a0ee414
DTITLE=Various Artist - Hits Van Hier - Het Beste Van 2014 - CD 2
DYEAR=2014
DGENRE=Chanson
TTITLE0=De Romeo's - Deze Is Voor Julia
TTITLE1=Bart Kaëll - Het Is Feest!
TTITLE2=Günther Neefs - Wat Een Dag
TTITLE3=Sasha and Davy - Daarom Jij
TTITLE4=Steve Tielens - Ik Heb De Hele Nacht Liggen Dromen Van Jou
TTITLE5=Sugarfree - Macarena
TTITLE6=Elke Taelman - Duizend Nachten Duizend Dromen
TTITLE7=De Romeo's - Feestival
TTITLE8=Fadim - Samen Op Vakantie
TTITLE9=Swoop - We Zingen Oelala
TTITLE10=Steve Tielens and Liesje Winten - Ik Heb Je Sleutel Weggesmeten
TTITLE11=Yves Segers - Geef Mij Maar Schlager
TTITLE12=Dennie Damaro - Sancta Maria
TTITLE13=Danny Fabry - Pretty Woman
TTITLE14=Sammy Bergmans - Met Een Vrouw Als Jij
TTITLE15=Salim Seghers - Agadou Dou Dou
TTITLE16=Paul Severs - Als Jij Maar Bij Me Bent
TTITLE17=Sammy Baker - Zomerzon
TTITLE18=Katastroof - Kakmadam
TTITLE19=Sisters Only - Life Should Be Fun
EXTD=
EXTT0=
EXTT1=
EXTT2=
EXTT3=
EXTT4=
EXTT5=
EXTT6=
EXTT7=
EXTT8=
EXTT9=
EXTT10=
EXTT11=
EXTT12=
EXTT13=
EXTT14=
EXTT15=
EXTT16=
EXTT17=
EXTT18=
EXTT19=
PLAYORDER=
